<svg xmlns="http://www.w3.org/2000/svg" viewBox="0 0 48 48" fill="none" aria-hidden="true">
  <path fill="#0a0a0a" d="M34.5 8.2c-1.8 1.2-3.4 3.1-4.2 5.1-.5 1.2-.7 2.5-.6 3.8l-.9.4c-2.2.9-4.1 2.5-5.4 4.5-1 1.6-1.5 3.4-1.6 5.3-.8-.2-1.6-.1-2.3.3-1.5.8-2.4 2.4-2.5 4.1-.1 1.5.3 3 .9 4.3.8 1.7 2.1 3.1 3.7 4.1 1.2.8 2.6 1.3 4 1.5.3 1.4 1 2.7 2 3.7 1.3 1.3 3.1 2 5 2.1 1.2.1 2.4-.1 3.5-.6 1.8-.8 3.2-2.3 3.9-4.1.4-1 .5-2.1.4-3.2 1.5-.5 2.8-1.5 3.7-2.8 1.2-1.8 1.6-4 1.1-6.1-.4-1.6-1.3-3-2.5-4.1 1.1-1.5 1.7-3.3 1.8-5.2.2-2.5-.6-5-2.2-7C39.8 5.8 37.2 4.5 34.5 8.2ZM30 12.8c.8-1.5 2-2.7 3.5-3.4 1.2-.6 2.6-.8 3.9-.5-1.2 1.6-2.5 3.1-3.8 4.5-.9.9-1.9 1.7-3 2.3-.4-1-.5-2.1-.6-3Z"/>
  <path fill="#0a0a0a" d="M18.8 20.4c-.7 1.6-1 3.3-.8 5 .1 1.2.5 2.3 1.1 3.3-1.2.5-2.2 1.4-2.8 2.5-.8 1.4-1 3-.6 4.5.5 2 2 3.7 4 4.5 1 .4 2.1.5 3.2.3-.2 1.5.2 3 .9 4.3-2.2-.1-4.3-.9-6-2.4-1.8-1.6-3-3.8-3.4-6.3-.3-1.8 0-3.7.9-5.3.8-1.4 2.1-2.5 3.6-3 0-1.4.4-2.8 1.1-4 .8-1.4 2-2.5 3.4-3.2-1 .8-1.8 1.9-2.4 3.1Z"/>
</svg>
