<svg xmlns="http://www.w3.org/2000/svg" viewBox="0 0 400 12" preserveAspectRatio="none" aria-hidden="true">
  <path fill="#f3efe6" d="M0 12 L0 6 C5 0 10 12 15 6 C20 0 25 12 30 6 C35 0 40 12 45 6 C50 0 55 12 60 6 C65 0 70 12 75 6 C80 0 85 12 90 6 C95 0 100 12 105 6 C110 0 115 12 120 6 C125 0 130 12 135 6 C140 0 145 12 150 6 C155 0 160 12 165 6 C170 0 175 12 180 6 C185 0 190 12 195 6 C200 0 205 12 210 6 C215 0 220 12 225 6 C230 0 235 12 240 6 C245 0 250 12 255 6 C260 0 265 12 270 6 C275 0 280 12 285 6 C290 0 295 12 300 6 C305 0 310 12 315 6 C320 0 325 12 330 6 C335 0 340 12 345 6 C350 0 355 12 360 6 C365 0 370 12 375 6 C380 0 385 12 390 6 C395 0 400 12 400 6 L400 12 Z"/>
</svg>
